<?xml version="1.0" encoding="utf-8"?>
<!-- Generator: Adobe Illustrator 27.6.1, SVG Export Plug-In . SVG Version: 6.00 Build 0)  -->
<svg version="1.1" id="Layer_1" xmlns="http://www.w3.org/2000/svg" xmlns:xlink="http://www.w3.org/1999/xlink" x="0px" y="0px"
	 viewBox="0 0 208 98" style="enable-background:new 0 0 208 98;" xml:space="preserve">
<style type="text/css">
	.st0{fill:#00427A;}
</style>
<g>
	<g>
		<path class="st0" d="M16.8,77.4v5.3c0,2.3-1.6,3.4-3.5,3.4S9.7,85,9.7,82.7v-5.3h1.8V82c0,1.4,0.1,2.7,1.8,2.7
			c1.7,0,1.8-1.3,1.8-2.7v-4.6H16.8z"/>
		<path class="st0" d="M23.8,85.9l-3.2-7.1l0,0v7h-1.6v-8.5h2.6l3.1,6.7l0,0v-6.7h1.6v8.5H23.8z"/>
		<path class="st0" d="M30,85.9h-1.8v-8.5H30V85.9z"/>
		<path class="st0" d="M31.4,77.4h1.9l2.1,6.7h0l2.1-6.7h1.7l-3,8.5h-1.9L31.4,77.4z"/>
		<path class="st0" d="M40.7,77.4h5.5v1.4h-3.7v2h3.5v1.4h-3.5v2.3h3.8v1.4h-5.6V77.4z"/>
		<path class="st0" d="M49.9,85.9h-1.8v-8.5h3.5c1.4,0,2.8,0.5,2.8,2.2c0,1.1-0.7,1.8-1.7,2.1v0c1.3,0.2,1.3,1,1.5,2.2
			c0.1,0.5,0.1,1.5,0.5,2h-1.9c-0.1-0.8-0.2-1.5-0.3-2.3c0-0.5-0.2-1.1-0.7-1.1h-1.9V85.9z M49.9,81.1h1.5c0.8,0,1.2-0.4,1.2-1.2
			s-0.5-1.1-1.2-1.1h-1.5V81.1z"/>
		<path class="st0" d="M60.7,79.8c-0.1-0.9-0.5-1.3-1.4-1.3c-0.6,0-1.3,0.4-1.3,1.1c0,0.9,0.8,1,1.5,1.2c1.2,0.3,3.1,0.7,3.1,2.4
			c0,2.1-1.8,2.8-3.5,2.8c-1.9,0-3.2-0.8-3.1-2.9h1.8c-0.1,0.9,0.5,1.6,1.4,1.6c0.7,0,1.6-0.2,1.6-1.1c0-1-1.2-1.1-1.9-1.3
			c-1.1-0.3-2.7-0.8-2.7-2.3c0-1.9,1.7-2.8,3.4-2.8c1.6,0,2.8,0.9,2.8,2.6H60.7z"/>
		<path class="st0" d="M66.2,85.9h-1.8v-8.5h1.8V85.9z"/>
		<path class="st0" d="M67.6,77.4h6.6v1.4h-2.4v7.1H70v-7.1h-2.4V77.4z"/>
		<path class="st0" d="M77.8,83.1L75,77.4h2l1.7,3.9l1.7-3.9h1.8l-2.7,5.7v2.8h-1.8V83.1z"/>
		<path class="st0" d="M87.5,85.9v-8.5h1.8v3.4h3.1v-3.4h1.8v8.5h-1.8v-3.7h-3.1v3.7H87.5z"/>
		<path class="st0" d="M96.1,77.4h5.5v1.4h-3.7v2h3.5v1.4h-3.5v2.3h3.8v1.4h-5.6V77.4z"/>
		<path class="st0" d="M103.1,85.9l3-8.5h2.1l2.8,8.5h-1.8l-0.6-1.8h-3.2l-0.6,1.8H103.1z M108.1,82.7l-1.1-3.6h0l-1.2,3.6H108.1z"
			/>
		<path class="st0" d="M112.4,85.9v-8.5h1.8v7.1h3.5v1.4H112.4z"/>
		<path class="st0" d="M117.6,77.4h6.6v1.4h-2.4v7.1H120v-7.1h-2.4V77.4z"/>
		<path class="st0" d="M125.7,85.9v-8.5h1.8v3.4h3.1v-3.4h1.8v8.5h-1.8v-3.7h-3.1v3.7H125.7z"/>
		<path class="st0" d="M143,85.9l-3.2-7.1l0,0v7h-1.6v-8.5h2.6l3.1,6.7l0,0v-6.7h1.6v8.5H143z"/>
		<path class="st0" d="M147.4,77.4h5.5v1.4h-3.7v2h3.5v1.4h-3.5v2.3h3.8v1.4h-5.6V77.4z"/>
		<path class="st0" d="M154.4,77.4h6.6v1.4h-2.4v7.1h-1.8v-7.1h-2.4V77.4z"/>
		<path class="st0" d="M166.5,77.4h2l1.4,6.4h0l1.3-6.4h1.7l-2.1,8.5h-1.9l-1.5-6.5h0l-1.6,6.5h-2l-2-8.5h1.8l1.3,6.4h0L166.5,77.4z
			"/>
		<path class="st0" d="M174,81.7c0-2.5,1.2-4.4,3.9-4.4c2.7,0,3.9,1.9,3.9,4.4c0,2.5-1.2,4.4-3.9,4.4C175.3,86.1,174,84.2,174,81.7z
			 M175.9,81.7c0,1.5,0.3,3.1,2.1,3.1s2.1-1.6,2.1-3.1c0-1.5-0.3-3.1-2.1-3.1S175.9,80.2,175.9,81.7z"/>
		<path class="st0" d="M185.4,85.9h-1.8v-8.5h3.5c1.4,0,2.8,0.5,2.8,2.2c0,1.1-0.7,1.8-1.7,2.1v0c1.3,0.2,1.3,1,1.5,2.2
			c0.1,0.5,0.1,1.5,0.5,2h-1.9c-0.1-0.8-0.2-1.5-0.3-2.3c0-0.5-0.2-1.1-0.7-1.1h-1.9V85.9z M185.4,81.1h1.5c0.8,0,1.2-0.4,1.2-1.2
			s-0.5-1.1-1.2-1.1h-1.5V81.1z"/>
		<path class="st0" d="M193.6,81.1L193.6,81.1l2.7-3.7h2l-3,3.8l3.3,4.7h-2.2l-2.8-4.3h0v4.3h-1.8v-8.5h1.8V81.1z"/>
	</g>
	<g>
		<g>
			<g>
				<path class="st0" d="M36.3,30.2l0,9c-1.1,0-2.5,0-3.3,0c-0.4-3.8-3.5-7-6.9-8.1c-2.4-0.4-5.5-0.5-7,1.8c-0.4,1.1-0.2,2,0.4,2.8
					c0.8,0.9,1.5,1.4,2.2,1.8c6.1,3.8,15.3,5,17.5,14.1c0.5,3.8-0.5,7-3.5,9.5c-7.2,5.6-18,3.6-25.4-0.8l-0.7-0.5V48.3
					c1.3,0,1.7,0,3.6,0c0,5.6,3.6,9.3,7.8,11.4c2,0.9,5.5,0.7,7.1-0.4c1.1-0.8,1.4-1.4,1-2.7c-1.7-2.8-4.5-4.1-7.3-5.7
					C17,48.3,10.4,45.8,9.4,40.2c-0.5-4,1.1-7.5,4.6-9.9C20,26.1,30.2,26.1,36.3,30.2z"/>
				<path class="st0" d="M46,31.3c0,2.1-0.3,2.8-1,4c-1.3,2.9-3.6,3.2-5.9,3.2c0,1.1,0,1.8,0,3.5h1.9v13.6c-0.1,2.7,0.6,4.4,1.1,5.3
					c0.9,2,2.9,3.3,4.6,3.6c4.3,0.6,7-0.6,9.4-3.8c0-1.1,0-2.5,0-3.7c-1.1,1.3-2.4,2.6-4.3,2.3c-0.6-0.2-1.2-0.8-1.4-1.8l0-15.5h4.2
					l0-3.5h-4.2v-7.2H46z"/>
				<path class="st0" d="M194.6,48c-0.1-0.8-0.2-1.4-0.4-2c-0.9-2.6-3.4-5.1-6.3-5.3c-1.5,0.1-3.1,0.2-3.8,1.7
					c-0.2,1.5,1,2.7,2.2,3.5c4.3,3.4,12.4,4,12.7,11.1c-0.4,2.2-1.7,4.3-3.8,5.7c-5.2,3.3-13.4,2-18.4-0.8l0.1-8.2l2.3,0
					c0.4,3.5,3.2,7.1,6.6,8.2c1.8,0.1,4.1,0.5,5.1-1.4c0.4-1.1-0.2-2-0.7-2.8c-4-3.6-10.9-3.9-12.7-10c-0.6-2-0.1-4.4,1-6
					c4.3-5.1,12.8-4.2,18.3-1.9l0,8.2L194.6,48z"/>
				<path class="st0" d="M103.4,53.6c0,1.6-0.7,2.9-1.8,3.9c-0.9,0.7-1.2,1-2.5,0.9c-0.7-0.3-1.3-1.1-1.3-1.8c0-0.4,0-0.7,0-0.7
					l0-17.5H85.9v3.2c0.6,0,0.8,0,1.2,0c0.6,0.2,1.2,0.5,1.5,1.1c0.1,0.2,0.2,0.4,0.2,1.5c0,1.4,0,3,0,4.5c0,1.5,0,3.1,0,4.5
					c0,4.4,0.3,8.3,4.2,10.3c4.7,1.4,7.5-0.8,10.4-4l0,4h12.3v-3.1c-1.4-0.2-1.7-0.2-2.5-0.8c-0.4-0.3-1.2-1.3-1.2-2.2l-0.1-19.2
					h-11.7v3.2c0,0,1.1,0,1.2,0c1.2,0.3,1.7,1.1,1.7,2.3L103.4,53.6z"/>
				<path class="st0" d="M145.2,63.8h-10.5c-0.4-0.9-0.6-1.7-1.6-3.2c-2.2-3.2-4.5-6.6-6.9-9.6c0,1.5,0,3.4,0,5.4
					c0,1.8,0,3.1,1.5,4.3c0.4,0.3,1.5,0.5,1.8,0.5l0,2.7l-12.1,0l0-30.7c-0.1-0.9-0.6-1.5-1.1-1.9c-0.3-0.4-1.1-0.5-1.6-0.5l0-3.2
					h11.5v19.4c2.4-2.6,5.2-3.8,5.2-8.4h10.3l0,3.1c-4.2,0-6.5,1.3-8.9,4.1l0,0l9.8,14.1c0.8,0.7,1.5,1.2,2.6,1.2V63.8z"/>
				<path class="st0" d="M158.5,48.5c-0.1-2.5-0.1-4.2-1.2-6.2c-0.6-0.9-1.6-1.4-2.5-1.4c-0.9,0-1.8,0.6-2.5,1.4
					c-1,2-1.1,3.7-1.2,6.2H158.5z M168,54.4c-0.3,4.3-4.2,8.8-8.4,10c-4.6,1.3-9.3-0.1-12.8-2.8l-0.7-0.6c-3.5-3.5-4.8-8.4-3.7-13.2
					c1.2-4.6,5.9-9.2,10.7-10c4.4-0.7,8.7,0.3,11.7,3.8c2.2,2.7,3.3,5.6,3,9.8l-16.6,0c0,2.3,1,5.6,3.7,7.2c2.1,1.3,5.4,1.2,7.5-0.2
					c1.5-1,2.2-2.5,2.5-3.9L168,54.4z"/>
				<path class="st0" d="M169.3,37.5l-4.9,1.7l1.9-5.2l-15-3l15-2.7l-1.9-5.2l5.1,2l2.8-15.1l2.8,15.1l5.1-2l-1.9,5.2l15,2.7l-15,3
					l1.9,5.2l-4.9-1.7l-2.9,37.1L169.3,37.5z M172.2,52.4l1.2-17.5l3.5,1.2l-1.2-3.5l8-1.5l-7.9-1.4l1.1-3.4l-3.4,1.5l-1.2-8l-1.2,8
					l-3.4-1.5l1.1,3.4l-7.9,1.4l8,1.5l-1.2,3.5l3.5-1.2L172.2,52.4z"/>
			</g>
			<path class="st0" d="M76.1,24.7V28c-0.8,0-1.6,0.2-2.3,0.7c-0.5,0.4-1,1.2-1.1,2.3l0,29.9c4.3,0.1,7.8-0.5,9.8-4
				c0.9-1.8,1.3-3.6,1.2-6.3h3.9v13.2h-27c0.6-1.8,1.2-3.4,1.3-5.5l0-27.4c-0.1-1.1-0.6-1.9-1.1-2.3c-0.7-0.5-1.4-0.7-2.3-0.7v-3.3
				H76.1z"/>
		</g>
	</g>
</g>
</svg>
